<svg xmlns="http://www.w3.org/2000/svg" width="78" height="94" viewBox="0 0 78 94" fill="none">
    <g clip-path="url(#clip0_14489_5651)">
        <g style="mix-blend-mode:plus-lighter" opacity="0.7">
            <path d="M70.4999 69.2263C82.2229 51.8293 77.6233 28.2229 60.2263 16.4999C42.8293 4.77684 19.2229 9.37647 7.49987 26.7734C-4.22316 44.1704 0.376468 67.7768 17.7734 79.4999C35.1704 91.2229 58.7768 86.6233 70.4999 69.2263Z" fill="url(#paint0_radial_14489_5651)"/>
        </g>
        <path fill-rule="evenodd" clip-rule="evenodd" d="M66.7556 60.9843C66.3315 61.0647 66.0821 60.7986 65.7956 60.5709C65.6265 60.4364 65.402 60.2748 65.2096 60.2844C64.6062 60.3149 64.0071 60.425 63.4054 60.4931C63.3222 60.5015 63.225 60.478 63.1477 60.4418C62.9893 60.3677 62.8475 60.2302 62.6835 60.1963C62.2532 60.1071 61.8161 60.0003 61.3726 60.147C61.3369 60.1584 61.3657 60.6216 61.3473 60.6017C61.0704 60.3086 60.2554 59.9696 60.4375 59.2544C60.4393 59.2463 60.4368 59.2334 60.4321 59.2265C60.108 58.8064 59.8439 58.3098 59.4424 57.9851C58.8871 57.5353 58.1741 57.4387 57.4761 57.6194C56.6163 57.8405 55.8451 57.7318 55.1337 57.1852C54.8488 56.9661 54.5273 56.8513 54.1452 56.8666C54.0079 56.8722 53.8294 56.7005 53.7317 56.5655C53.6736 56.4853 53.729 56.3171 53.7468 56.1909C53.7627 56.0717 53.7996 55.9574 53.8261 55.8417C53.7073 55.8392 53.5856 55.8216 53.471 55.8406C52.9681 55.923 52.4691 56.037 51.9635 56.0942C51.744 56.1191 51.5943 56.1583 51.4968 56.3681C51.3997 56.5801 51.3123 57.134 51.068 57.1459C50.65 57.166 50.2324 57.2049 49.8174 57.2579C49.5941 57.2858 49.3123 56.8474 49.124 56.6776C49.0335 56.597 48.877 56.5895 48.7504 56.5472C48.5048 56.4667 48.2467 56.4077 48.0141 56.2967C47.8034 56.1949 47.6769 56.2386 47.5855 56.4338C47.5394 56.5298 47.5268 56.6428 47.4806 56.7377C47.3686 56.9649 47.1788 57.0331 46.9123 57.0114C46.9429 56.9396 46.9644 56.9064 46.9729 56.8701C47.005 56.7311 47.0327 56.5929 47.0624 56.4531C46.9056 56.4558 46.7467 56.4477 46.59 56.4626C46.5276 56.4692 46.4567 56.512 46.4101 56.559C45.9284 57.0368 45.304 57.2634 44.7071 57.5393C44.3804 57.69 44.1574 57.9087 44.0733 58.29C43.9493 58.851 43.3591 59.1669 42.8092 59.0084C42.2581 58.8491 41.7097 58.8756 41.2591 59.2268C40.4844 59.8275 39.5019 59.4933 38.9489 58.8488C38.8017 58.6777 38.7798 58.5023 38.8032 58.2789C38.8508 57.8244 38.8763 57.3652 38.8622 56.9092C38.8508 56.5297 38.7194 56.3879 38.3362 56.3688C37.8875 56.3458 37.4307 56.3611 36.9863 56.4231C36.4808 56.4926 35.986 56.6337 35.4874 56.7442C35.3195 56.7814 35.2332 56.7279 35.2018 56.5499C35.1301 56.1419 35.1205 55.7487 35.3816 55.3932C35.4257 55.3332 35.4697 55.2499 35.464 55.1807C35.4226 54.6932 35.572 54.2568 35.7784 53.827C35.8952 53.5844 35.8043 53.4101 35.5371 53.3963C35.3548 53.3884 35.1619 53.4181 34.9872 53.4723C34.5747 53.6006 34.1669 53.7471 33.7622 53.8984C33.3898 54.038 33.1814 54.2973 33.1521 54.7138C33.1113 55.3121 32.8086 55.6947 32.3491 55.8278C32.0683 55.9104 31.7808 55.9988 31.5236 56.1337C30.922 56.4485 30.3145 56.3436 29.8034 56.0347C28.5195 55.2592 28.1586 54.1343 28.3958 52.7052C28.4379 52.4515 28.4484 52.1793 28.4059 51.9265C28.3021 51.3195 28.5672 50.7154 29.1084 50.4057C29.262 50.3177 29.4095 50.2153 29.5424 50.1012C30.3263 49.4273 31.2218 49.2003 32.2375 49.3841C32.7093 49.4685 33.1299 49.2672 33.561 49.114C33.3546 48.6162 33.4383 48.4214 33.9278 48.3104C34.3574 48.2122 34.7965 48.1344 35.2352 48.0947C35.5101 48.0679 35.794 48.1387 36.073 48.1446C36.2747 48.1488 36.4925 48.1611 36.675 48.0954C37.1156 47.9337 37.5643 48.0482 37.8343 48.4432C37.8669 48.4904 37.9203 48.5581 37.9066 48.5965C37.7668 49.0077 38.0506 49.2437 38.284 49.485C38.5678 49.779 38.8549 50.078 39.1768 50.3267C39.4158 50.5111 39.7096 50.4494 39.8725 50.2603C40.167 49.9217 40.2162 49.4523 40.0066 49.0523C39.7756 48.6118 39.5208 48.1804 39.3269 47.7238C38.9373 46.8008 38.8845 46.2319 39.9222 45.6067C40.1311 45.4811 40.3457 45.34 40.5037 45.1597C41.0011 44.5906 41.5757 44.1204 42.2058 43.7108C42.5942 43.4588 42.7651 43.1275 42.6151 42.6556C42.5026 42.3014 42.5958 41.9663 42.8204 41.6871C43.0452 41.4089 43.0855 41.0718 43.2061 40.757C43.3239 40.4506 43.5829 40.1992 43.7779 39.9224C43.7945 39.899 43.8114 39.8712 43.8161 39.8435C43.8685 39.4538 44.1439 39.2919 44.4768 39.1735C44.6699 39.1046 44.853 39.0075 45.0375 38.918C45.3341 38.7732 45.6209 38.6068 45.9265 38.4858C46.1784 38.3865 46.3685 38.2513 46.4681 37.9718C46.3741 37.9187 46.2797 37.8813 46.2106 37.8189C46.1358 37.7498 46.0207 37.6405 46.0359 37.575C46.0932 37.325 45.9527 36.1057 46.1196 35.9482C46.5185 35.5725 47.1659 36.1975 47.7169 36.0466C47.9933 35.9704 48.2335 35.7596 48.4899 35.6091C48.547 35.5757 48.6013 35.5394 48.7121 35.4721C48.6856 35.6112 48.6861 35.6825 48.6594 35.7402C48.5682 35.9421 48.5717 36.1323 48.7619 36.266C48.9712 36.4127 49.1999 36.4463 49.4165 36.269C49.539 36.1704 49.6479 36.0532 49.7753 35.9625C50.0202 35.7875 50.2643 35.6083 50.5246 35.4605C51.0959 35.1337 51.6837 34.8395 52.2487 34.5029C52.5835 34.3026 52.57 34.2673 52.3037 33.9721C52.2653 33.9293 52.2467 33.8682 52.2151 33.8208C52.0785 33.6064 51.8783 33.5873 51.71 33.7831C51.5942 33.9161 51.51 34.0798 51.3842 34.2015C51.3136 34.2688 51.1777 34.3276 51.0891 34.3081C50.5987 34.1971 50.114 34.0639 49.6292 33.9296C49.5654 33.9119 49.4792 33.8472 49.4687 33.7934C49.4212 33.5382 49.3241 33.2803 49.5412 33.0371C49.5889 32.9843 49.548 32.7512 49.501 32.7336C49.2505 32.6451 48.9687 32.5103 48.7289 32.557C48.2913 32.6423 47.8765 32.8447 47.4533 32.9986C47.3356 33.0416 47.2209 33.0886 47.1046 33.1335C47.0957 33.1107 47.0857 33.0881 47.076 33.0666C47.1732 33.0041 47.2778 32.9513 47.3654 32.8796C47.6146 32.6748 47.8937 32.4921 48.09 32.2451C48.2874 31.9979 48.5017 31.8836 48.8063 31.8544C49.6768 31.7685 50.5487 31.6779 51.4166 31.5612C51.9755 31.4858 52.4786 31.2951 52.7836 30.7524C52.9368 30.4793 53.2377 30.5055 53.5381 30.4838C53.3368 31.0029 53.2022 31.5035 52.9521 31.9384C52.8013 32.201 52.6097 32.4035 52.6022 32.7431C52.5953 33.0626 52.6376 33.1592 52.9566 33.1183C53.3461 33.0669 53.737 33.0053 54.1277 32.9827C54.2481 32.976 54.4327 33.0472 54.4894 33.1433C54.6332 33.3831 54.7868 33.3811 54.9699 33.2327C55.1376 33.0962 55.2695 33.0516 55.4566 33.216C55.6584 33.3921 56.0868 33.3912 56.2337 33.2577C56.3993 33.1049 56.3982 32.7613 56.2216 32.491C56.1803 32.4277 56.1152 32.3801 56.0618 32.3235C55.9122 32.1629 55.7619 32.0047 55.616 31.8401C55.5959 31.8172 55.6016 31.7659 55.6009 31.7281C55.5884 31.4637 55.273 31.2082 55.0622 31.3464C54.7087 31.5771 54.5084 31.5224 54.2776 31.1801C54.1675 31.0163 54.1327 30.9461 54.2565 30.7913C54.4827 30.5084 54.3825 30.2233 54.0212 30.1106C54.3264 29.8782 54.1251 29.6015 54.1306 29.3315C54.1386 28.9259 53.9284 28.8151 53.6192 28.6945C53.391 28.6062 53.1521 28.4742 52.9975 28.2934C52.8717 28.146 52.7661 28.0393 52.5758 28.0307C51.9303 28.0058 51.39 27.7014 50.8581 27.3776C50.7073 27.2853 50.623 27.1846 50.6795 26.9705C50.7112 26.8471 50.6214 26.6726 50.5423 26.5474C50.4298 26.3651 50.2776 26.2084 50.1424 26.0416C49.7314 25.5302 49.3247 25.0179 48.9089 24.5108C48.7365 24.3021 48.5542 24.3287 48.4334 24.5733C48.3511 24.7411 48.2577 24.9089 48.2132 25.0872C48.0994 25.5457 47.7365 25.7682 47.3879 26.0069C47.3319 26.0457 47.2317 26.0585 47.1645 26.0404C46.4567 25.8446 46.0962 25.3635 46.2777 24.5993C46.3672 24.2225 46.3044 24.1064 45.8921 24.1097C45.6025 24.1126 45.3707 24.0171 45.1283 23.8612C44.7683 23.6289 44.3752 23.4444 43.9847 23.2615C43.8987 23.2213 43.7666 23.2594 43.6638 23.2872C43.5323 23.3229 43.4085 23.4262 43.2803 23.4267C42.9672 23.4296 42.6524 23.366 42.3393 23.3745C41.8696 23.3868 41.7193 23.6583 41.8922 24.0755C41.938 24.1849 41.9438 24.3578 41.8864 24.4527C41.7677 24.6511 41.7931 24.8158 41.8804 25.0063C41.9272 25.1088 41.9404 25.2279 41.9546 25.3412C41.9905 25.6456 41.7654 25.8134 41.6026 26.0203C41.2679 26.4449 41.0239 26.5616 41.7033 26.9438C42.1193 27.1774 42.1592 27.6284 42.244 28.0404C42.3115 28.3643 42.0771 28.5361 41.8667 28.682C41.4724 28.9553 41.0487 29.1863 40.6499 29.4537C40.5354 29.5307 40.375 29.6925 40.3922 29.7863C40.4717 30.2172 40.6008 30.6396 40.7244 31.0619C40.8334 31.4324 40.5318 32.0035 40.1549 32.097C40.0962 32.1107 40.0082 32.0944 39.9639 32.0561C39.6866 31.8188 39.4185 31.5709 39.0961 31.2799C39.3206 31.2518 39.4761 31.2483 39.6235 31.2084C39.6945 31.189 39.7469 31.1029 39.8073 31.0464C39.7464 30.9914 39.6891 30.892 39.6247 30.8878C39.4367 30.8742 39.2463 30.8991 39.0404 30.9079C39.0434 30.6082 39.0316 30.2902 39.0502 29.973C39.0792 29.4975 39.0556 29.4507 38.5809 29.512C37.6973 29.6283 36.8659 29.4109 36.0993 29.0335C35.3251 28.6519 34.5686 28.4009 33.7113 28.6517C33.6966 28.6567 33.6765 28.6395 33.6341 28.6221C33.6049 28.4034 33.5729 28.1708 33.5421 27.938C33.4855 27.5104 33.4704 27.4899 33.0414 27.4362C32.895 27.4178 32.7839 27.3748 32.8202 27.2003C32.9263 26.6796 33.0426 26.1592 33.44 25.7648C33.8775 25.3291 34.323 24.9008 34.7564 24.4614C34.979 24.235 35.193 24.0158 35.5372 23.9778C35.6105 23.9702 35.6894 23.86 35.7362 23.7794C35.9767 23.3754 36.2718 23.0623 36.7826 23.032C36.893 23.0261 37.0286 22.9774 37.1008 22.9008C37.3816 22.6006 37.6418 22.2809 37.9093 21.9698C37.9476 21.9255 37.9856 21.8802 38.0239 21.8359C38.0536 21.8513 38.0834 21.8667 38.1124 21.8834C37.9871 22.1913 37.8717 22.504 37.7305 22.8049C37.6695 22.9329 37.5723 23.0355 37.7219 23.1615C38.2045 23.5708 38.3933 23.5775 38.9077 23.1815C39.0009 23.1098 39.1031 23.0386 39.171 22.9461C39.3503 22.698 39.5262 22.7072 39.7671 22.8779C40.0589 23.0811 40.3941 23.0259 40.6994 22.9028C40.9082 22.8174 40.9296 22.6124 40.7663 22.5248C40.2699 22.2565 39.7678 21.9939 39.2696 21.7282C39.1314 21.6547 38.9821 21.6045 39.0114 21.3879C39.0194 21.3317 38.9042 21.2447 38.8292 21.198C38.7089 21.1243 38.5759 21.0721 38.449 21.0109C38.4686 20.968 38.4881 20.9251 38.5077 20.8823C38.6462 20.9345 38.7947 20.9692 38.9226 21.0414C39.0484 21.114 39.1401 21.2468 39.2687 21.311C39.3711 21.3613 39.504 21.35 39.677 21.3732C39.5957 21.225 39.5565 21.1556 39.5137 21.0791C39.57 21.0358 39.6062 21.0042 39.6459 20.9786C40.0056 20.7399 40.3731 20.5121 40.7251 20.2627C40.9162 20.1261 41.0403 19.9156 40.8473 19.7099C40.5843 19.4308 40.6101 19.3286 40.9105 19.106C41.1067 18.9618 41.0889 18.79 40.943 18.6254C40.8543 18.5255 40.7447 18.4442 40.6435 18.3545C40.6462 18.3283 40.6487 18.301 40.6512 18.2737C40.8059 18.2771 40.9702 18.2496 41.1143 18.2907C41.3497 18.3586 41.5551 18.3476 41.758 18.2088C41.8979 18.1134 42.0472 18.0319 42.1918 17.9434C42.2144 17.9625 42.2378 17.9791 42.2605 17.9981C42.1825 18.1194 42.1138 18.2477 42.0253 18.3609C41.9252 18.4887 41.8067 18.6022 41.6862 18.7339C41.7308 18.7565 41.7629 18.7837 41.797 18.7871C42.0766 18.813 42.2343 18.6718 42.3207 18.4161C42.3429 18.3526 42.4094 18.2928 42.4708 18.2585C42.4938 18.2451 42.5997 18.307 42.5997 18.3361C42.6096 18.6846 42.9033 18.691 43.1241 18.7875C43.2278 18.8331 43.326 18.8899 43.4252 18.9408C43.2688 19.026 43.1416 19.0262 43.0186 19.048C42.7292 19.0977 42.6294 19.3359 42.5638 19.5719C42.5388 19.6615 42.5889 19.8214 42.6606 19.88C42.8605 20.0408 43.0712 19.9194 43.2701 19.8349C43.3123 19.8166 43.3384 19.7613 43.3812 19.7407C43.5675 19.6486 43.7555 19.5595 43.9446 19.4758C44.0105 19.4473 44.0825 19.4333 44.1522 19.413C44.159 19.3793 44.1657 19.3446 44.1725 19.3109C43.9943 19.244 43.8148 19.1763 43.6366 19.1095C43.7838 19.0573 43.9272 19.0484 44.0572 19.0856C44.5596 19.2298 44.6685 19.674 44.304 20.043C44.1304 20.2175 43.9572 20.3941 43.8035 20.5848C43.7439 20.6567 43.6876 20.7915 43.7155 20.8664C43.7944 21.0765 43.9675 21.3631 43.8029 21.4063C43.5705 21.4683 43.0353 21.3907 42.8225 21.3351C42.4251 21.2317 42.2319 21.42 42.0432 21.6945C41.9226 21.872 41.9619 22.005 42.1449 22.1077C42.3939 22.2456 42.6468 22.232 42.9153 22.1551C43.6608 21.9429 44.3304 21.9944 44.9042 22.6192C45.1183 22.8531 45.3743 23.1303 45.7781 23.0951C45.9473 23.0811 46.1231 23.1183 46.2946 23.1451C46.7699 23.2188 47.243 23.3097 47.7196 23.3731C47.8065 23.384 47.9064 23.301 48.0001 23.2604C47.9515 23.1716 47.9242 23.0598 47.8523 23.0001C47.7256 22.8942 47.5745 22.8176 47.4293 22.7366C47.2778 22.6522 47.1213 22.5767 46.9664 22.4975C46.9766 22.4754 46.9866 22.4523 46.997 22.4313C47.5369 22.6073 48.0766 22.7823 48.5721 22.9425C48.5905 22.7335 48.6121 22.5407 48.6232 22.3454C48.6271 22.2799 48.6293 22.188 48.5904 22.1487C48.2629 21.8141 48.0829 21.3313 47.5413 21.2092C47.373 21.1705 47.2401 20.9352 47.1165 20.7707C47.0847 20.7278 47.1292 20.5952 47.1783 20.5377C47.2103 20.5013 47.3336 20.4985 47.3835 20.5312C47.5711 20.652 47.7397 20.8011 47.9255 20.9245C48.0936 21.0368 48.2647 21.153 48.4508 21.2261C48.6189 21.2927 48.8013 21.3007 48.7479 21.0097C48.7387 20.9624 48.7715 20.8958 48.8046 20.8536C48.9473 20.6696 49.1043 20.4961 49.2458 20.3112C49.4395 20.0569 49.4126 19.9818 49.1259 19.8278C48.6819 19.5885 48.1566 19.51 47.7808 19.139C47.7478 19.1075 47.6907 19.1008 47.6459 19.0827C47.3725 18.9742 47.0012 19.6001 46.7339 19.477C46.6567 19.4418 46.6415 18.6133 46.6493 18.5559C46.6617 18.4709 46.7588 18.3906 46.833 18.3248C46.8775 18.2838 46.9465 18.2715 46.9857 18.2549C46.4275 17.4005 45.4138 17.29 44.6545 16.7672C44.5952 16.7263 44.5012 16.7133 44.4266 16.72C43.8538 16.7759 43.4863 16.3162 42.9988 16.1567C42.9619 16.145 42.9257 16.085 42.9151 16.0425C42.8287 15.6676 42.5312 15.5157 42.2134 15.4482C41.4472 15.2849 40.6855 15.3106 39.9723 15.6772C39.8353 15.7475 39.6802 15.8848 39.6402 16.0232C39.5573 16.3083 39.5444 16.6144 39.5019 16.9173C39.2665 16.7746 39.4753 16.5687 39.4352 16.4091C39.376 16.1684 39.4613 16.0045 39.6019 15.8499C39.7309 15.7098 39.8761 15.5844 40.0371 15.4314C39.7206 15.2162 39.423 15.2698 39.1387 15.3743C38.6073 15.5682 38.241 15.9677 37.9332 16.4216C37.6856 16.7891 37.4623 17.144 37.7263 17.6338C37.8557 17.8742 37.9769 18.0437 38.2366 18.0991C38.5871 18.1737 38.9384 18.2414 39.2788 18.3101C39.2663 18.4063 39.2409 18.5564 39.2313 18.7078C39.2211 18.8727 38.8476 19.4131 38.69 19.4293C38.4363 19.4564 38.3091 19.5538 38.3488 19.8262C38.3556 19.8728 38.2933 19.9653 38.2505 19.9748C38.2047 19.9859 38.1023 19.93 38.0932 19.8893C38.0609 19.7349 38.0607 19.5732 38.0421 19.4149C38.0268 19.2907 38.0446 19.1299 37.9734 19.0511C37.6829 18.7282 37.5272 18.7485 37.2589 19.0955C37.2381 19.1207 37.203 19.1354 37.1144 19.1961C37.1371 19.0087 37.1516 18.8831 37.1715 18.7274C36.9354 18.6897 36.7063 18.654 36.4187 18.6096C36.5458 18.4944 36.6275 18.4383 36.6854 18.3634C36.7343 18.2992 36.7975 18.2054 36.7834 18.139C36.7137 17.8155 36.6341 17.4929 36.5297 17.1806C36.4415 16.9165 36.7561 16.3262 37.035 16.3199C37.7185 16.305 37.875 15.6819 38.2684 15.295C37.8656 15.2272 37.4814 15.1972 37.0983 15.2127C36.6711 15.2312 36.3474 15.4259 36.2204 15.8681C36.1949 15.9546 36.1346 16.0288 36.0899 16.1089C36.0107 15.9603 35.9845 15.8259 35.9998 15.6979C36.034 15.4212 35.9041 15.2757 35.6276 15.3285C35.3867 15.3754 35.1443 15.4316 34.9155 15.5174C34.7399 15.584 34.5846 15.7036 34.4415 15.7884C34.5341 15.9601 34.5854 16.0572 34.6376 16.1531C34.6166 16.1717 34.5946 16.1905 34.5737 16.209C34.4995 16.1722 34.4269 16.1316 34.3506 16.1007C34.146 16.0189 33.883 16.1126 33.7906 16.2969C33.684 16.5119 33.7685 16.6818 33.9783 16.8306C34.1648 16.9628 34.3349 17.1317 34.472 17.3137C34.6124 17.5017 34.7792 17.5619 34.9472 17.4331C35.28 17.1763 35.7553 17.0781 35.898 16.6017C35.9128 16.5519 35.9847 16.52 36.0305 16.4799C36.0583 16.5024 36.0853 16.5261 36.1133 16.5497C35.9822 16.7192 35.8777 16.9215 35.7159 17.0535C35.1928 17.479 34.9382 17.9996 35.0602 18.6946C35.0086 18.7047 34.9492 18.7375 34.9198 18.7186C34.4762 18.4524 34.1878 18.7195 33.902 19.0051C33.8685 19.0395 33.8226 19.0619 33.7827 19.092C33.679 19.1724 33.5757 19.2551 33.4722 19.3366C33.5827 19.4055 33.6941 19.4731 33.8026 19.5434C33.8168 19.553 33.8222 19.5753 33.8397 19.6076C33.6907 19.7249 33.5022 19.8174 33.3966 19.9685C33.2583 20.1696 33.0993 20.2296 32.8755 20.2096C32.7894 20.2029 32.6873 20.2061 32.6147 20.2459C32.1037 20.5274 31.6387 20.1972 31.1574 20.1325C31.085 20.1221 30.9827 19.9634 30.9859 19.8769C30.9886 19.8049 31.1168 19.6951 31.2047 19.6769C31.4245 19.6307 31.6544 19.6417 31.8771 19.605C32.2287 19.5477 32.5848 19.4794 32.5151 18.9383C32.6309 18.9827 32.6978 19.011 32.7655 19.0323C32.8273 19.0516 32.9296 19.0952 32.9467 19.0741C33.0694 18.9251 33.1907 18.7687 33.2698 18.5959C33.2846 18.5629 33.1092 18.4419 33.0191 18.3635C32.8221 18.1887 32.5805 18.0427 32.4482 17.8274C32.3894 17.7318 32.5763 17.5056 32.6124 17.33C32.7296 16.757 32.9571 16.2696 33.5088 15.9846C33.5706 15.9525 33.5943 15.8452 33.6351 15.7736C33.5609 15.7367 33.4863 15.6687 33.4128 15.6696C33.1309 15.6721 32.8379 15.6522 32.6389 15.9253C32.6048 15.9733 32.5238 16.0103 32.4649 16.0117C32.1811 16.0156 32.0485 16.1888 31.9488 16.4214C31.8362 16.6855 31.7079 16.9438 31.5878 17.2038C31.5647 17.1938 31.5426 17.1836 31.5194 17.1736C31.5713 17.0329 31.6534 16.893 31.6655 16.7489C31.6747 16.6299 31.6012 16.5048 31.565 16.3823C31.4516 16.4245 31.3331 16.4577 31.2252 16.5111C31.1631 16.5421 31.1162 16.6048 31.062 16.6533C31.0626 16.622 31.063 16.5895 31.0636 16.5582C30.8399 16.4812 30.6162 16.4043 30.3565 16.3142C30.3405 16.1633 30.3192 15.951 30.2992 15.7395C30.2816 15.5465 30.168 15.5072 29.9928 15.5134C29.8001 15.5209 29.6065 15.4894 29.4133 15.4835C29.2898 15.4797 29.1641 15.4818 29.0427 15.4999C28.5593 15.574 28.1011 15.6968 27.8535 16.1847C27.8405 16.2096 27.8127 16.2273 27.7892 16.2441C27.4478 16.5082 27.1273 16.8106 26.7569 17.0234C26.3786 17.2411 26.3312 17.5193 26.4343 17.882C27.2445 17.9106 27.764 17.2948 28.4245 16.9842C28.3331 17.0935 28.2278 17.1777 28.1223 17.2607C27.8459 17.4742 27.8517 17.5612 28.1675 17.7385C28.0264 17.8162 27.868 17.8683 27.7637 17.9746C27.6851 18.0524 27.6577 18.1983 27.6496 18.3171C27.6482 18.3442 27.8217 18.4097 27.9145 18.4106C28.1489 18.4107 28.3837 18.3727 28.6176 18.3707C28.8106 18.3699 29.0036 18.3982 29.1973 18.4129C29.1988 18.455 29.199 18.4962 29.2005 18.5384C29.093 18.5593 28.9869 18.5934 28.8795 18.5976C28.6448 18.6076 28.4037 18.5731 28.173 18.6091C27.8008 18.6693 27.3944 18.6972 27.2039 19.1171C27.0788 19.3915 27.1797 19.5772 27.4792 19.6249C27.5818 19.6417 27.6845 19.653 27.7899 19.667C27.7876 19.7411 27.7884 19.78 27.7835 19.8178C27.7314 20.1974 27.7717 20.2498 28.1398 20.1915C28.6907 20.1031 29.2506 20.061 29.7471 19.7455C29.9734 19.6009 30.2535 19.5374 30.5149 19.453C30.5967 19.4259 30.6965 19.4511 30.8531 19.453C30.4286 19.7433 29.8647 19.6098 29.6027 20.1096C29.7156 20.1679 29.8035 20.2122 29.8877 20.2549C29.77 20.3325 29.6417 20.3843 29.5628 20.4778C29.3891 20.6802 29.2228 20.6858 28.9928 20.5654C28.8711 20.5021 28.6923 20.5068 28.5506 20.5355C28.2048 20.6051 27.8688 20.7309 27.5228 20.7882C27.3184 20.8214 27.1014 20.7677 26.8899 20.7531C26.8854 20.7127 26.8821 20.6731 26.8776 20.6327C27.0231 20.5664 27.1813 20.5189 27.3087 20.4282C27.4243 20.3454 27.5059 20.2145 27.6031 20.1063C27.4681 20.0087 27.3403 19.8975 27.1955 19.8185C27.1381 19.7873 27.0316 19.8538 26.9662 19.8275C26.6656 19.7053 26.3184 19.6245 26.0893 19.4169C25.8141 19.1669 25.7191 19.0861 25.3862 19.2793C25.272 19.3462 25.1606 19.4159 25.0229 19.4997C25.1002 19.2949 25.162 19.1311 25.2236 18.9661C25.1975 18.9523 25.1713 18.9384 25.1441 18.9247C24.9037 19.0999 24.6633 19.2751 24.4239 19.4501C24.409 19.4307 24.3951 19.4111 24.3813 19.3914C24.5067 19.0902 24.6333 18.7888 24.7585 18.4865C24.7264 18.4704 24.6931 18.4546 24.661 18.4385C24.4421 18.6497 24.2221 18.8611 24.003 19.0712C23.9907 19.0311 23.9772 18.9903 23.9649 18.9502C23.8569 18.9344 23.7444 18.8894 23.6444 18.9089C23.524 18.9324 23.4165 19.0225 23.2954 19.0595C22.8952 19.1821 22.5774 19.5789 22.0866 19.4144C22.0246 19.3941 21.9195 19.4615 21.8485 19.5099C21.6297 19.6586 21.4192 19.8213 21.2002 19.9688C21.144 20.0066 21.0613 20.006 20.9909 20.023C20.9769 19.951 20.938 19.8715 20.9544 19.8069C20.9912 19.6692 21.0563 19.5393 21.1106 19.4059C21.0876 19.4249 21.0643 19.4429 21.0412 19.4619C20.8939 19.3533 20.7518 19.237 20.5976 19.1387C20.5428 19.1036 20.4607 19.1118 20.3911 19.1042C20.2046 19.0803 20.0173 19.0587 19.8286 19.0352C19.8326 18.9239 19.8353 18.8576 19.8369 18.7858C19.7508 18.7792 19.6728 18.7743 19.6614 18.7731C19.6984 18.5103 19.732 18.2705 19.7764 17.9539C19.2276 18.265 18.7593 18.5136 18.3089 18.7911C17.5605 19.2517 16.7824 19.6801 16.0941 20.2204C15.5249 20.6673 15.0661 21.2567 14.5597 21.7851C14.5411 21.8043 14.5392 21.8404 14.5238 21.8646C14.3385 22.1507 14.1558 22.4385 13.964 22.7203C13.9294 22.7717 13.8534 22.7943 13.7968 22.8299C13.7437 22.7867 13.6896 22.7437 13.6365 22.7004C13.7849 22.5856 13.9322 22.4709 14.0806 22.3561C14.0512 22.3372 14.0221 22.3195 13.993 22.3017C12.9861 22.7647 12.4763 23.6709 11.8973 24.623L12.5833 24.4893C12.2006 24.7592 12.1494 25.2123 11.6616 25.3553C11.3333 25.4517 11.0786 25.8171 10.8059 26.079C10.644 26.2333 10.5159 26.4234 10.3664 26.5898C9.80731 27.2144 9.25968 27.8635 9.01804 28.674C8.90006 29.0708 8.85437 29.4894 8.63428 29.8548C8.5784 29.946 8.53665 30.0468 8.49083 30.1439C8.48063 30.166 8.48413 30.1954 8.47961 30.2409C8.55819 30.2089 8.61932 30.1847 8.68864 30.1567C8.69038 30.2401 8.69332 30.2953 8.69451 30.3587C8.76179 30.3087 8.81032 30.2714 8.89787 30.2052C8.87126 30.2863 8.86553 30.3142 8.85273 30.3401C8.20305 31.6397 7.19164 32.6638 6.25644 33.7467C6.11253 33.9131 5.98209 34.0914 5.8461 34.2641C5.87649 34.2883 5.90837 34.3145 5.93897 34.3398C6.20231 33.9615 6.62438 33.762 6.90616 33.3924C7.41089 32.7293 7.9535 32.0946 8.48841 31.4546C8.63668 31.2762 8.81534 31.122 8.97965 30.9571C8.99997 30.9755 9.02029 30.9939 9.03974 31.0135C8.77498 31.2872 8.50402 31.5576 8.47612 32.0273C9.03455 31.4967 9.56393 31.0174 9.74594 30.2732C9.59164 30.4551 9.43756 30.638 9.28412 30.8186C9.49148 30.4221 9.69152 30.0282 9.9534 29.6826C10.2071 29.3463 10.5248 29.0579 10.815 28.7491C10.8217 28.7545 10.8283 28.7599 10.8339 28.7655C10.6186 29.1099 10.4044 29.4541 10.1889 29.7974C10.2146 29.8147 10.2391 29.8312 10.2645 29.8474C10.6113 29.5823 10.9592 29.317 11.3057 29.0508C11.7966 29.1984 11.8803 28.3908 12.4019 28.576C12.3696 28.7084 12.3413 28.8267 12.2922 29.0327C12.7256 28.6681 12.9832 29.0052 13.2425 29.1444C13.3077 29.4788 13.3806 29.8072 13.4327 30.1375C13.457 30.2912 13.4713 30.4558 13.4402 30.6059C13.3872 30.855 13.2657 31.0908 13.225 31.3398C13.1838 31.5866 13.1204 31.8858 13.221 32.0872C13.4029 32.4535 13.3468 32.7557 13.1969 33.0919C13.1559 33.1847 13.1894 33.311 13.1897 33.4214C13.3155 33.3969 13.4768 33.4112 13.5597 33.3382C13.7066 33.2102 13.8082 33.2161 13.9497 33.3526C13.8467 33.597 13.7252 33.8383 13.6444 34.094C13.5962 34.2473 13.5676 34.4326 13.6091 34.583C13.6783 34.8351 13.8136 35.0711 13.9136 35.315C13.9333 35.3647 13.9349 35.4358 13.9157 35.4864C13.7688 35.8778 13.76 36.2679 13.8968 36.5805C13.7111 36.6413 13.4844 36.6464 13.4035 36.7581C13.2583 36.9583 13.3046 37.2071 13.48 37.4084C13.5376 37.4753 13.5953 37.5422 13.6558 37.6063C13.8167 37.7792 14.0041 37.9335 14.1334 38.1271C14.2232 38.2613 14.2637 38.4465 14.2726 38.6122C14.2843 38.8443 14.2169 39.0829 14.2341 39.3139C14.2762 39.8626 13.9214 40.2007 13.7388 40.7185C13.5174 41.3464 13.279 41.9732 13.1282 42.6198C12.9776 43.2619 12.9683 44.1532 12.8748 44.8076C12.8628 44.8947 13.0733 44.9441 13.0918 45.0276C13.1859 45.459 13.2725 45.8919 13.4006 46.3145C13.4699 46.5443 13.661 46.7403 13.7193 46.9711C13.8934 47.6526 14.1733 48.2811 14.5045 48.8985C14.6382 49.1492 14.7982 49.2029 15.0426 49.2602C15.5855 49.3888 15.9358 49.8004 16.1457 50.4537C16.4148 51.2908 16.971 51.8085 17.7693 52.297C17.8428 52.3418 17.9235 52.412 17.9461 52.488C17.9784 52.5966 18.0032 52.7413 17.9562 52.832C17.7616 53.2025 17.8005 53.3277 18.2068 53.4941C18.4616 53.5985 18.7191 53.6945 18.9669 53.8147C19.2202 53.935 19.3714 54.1266 19.4088 54.4273C19.4265 54.57 19.5432 54.7337 19.6635 54.8241C19.9927 55.0702 20.3429 55.2922 20.6974 55.5021C20.7784 55.5511 20.9455 55.5553 21.01 55.5026C21.0745 55.4498 21.1095 55.2801 21.0725 55.1991C21.0103 55.0628 20.8823 54.956 20.7824 54.8382C20.5451 54.5541 20.2486 54.2983 20.0843 53.9765C19.8505 53.5209 19.5292 53.1494 19.1881 52.785C18.8526 52.4263 18.4877 52.0945 18.1774 51.7163C18.0104 51.5123 17.9196 51.2409 17.8216 50.9899C17.7949 50.9214 17.8431 50.7681 17.9026 50.7353C17.981 50.691 18.1178 50.6945 18.2038 50.7346C18.2923 50.7765 18.3601 50.8783 18.4164 50.9666C18.5257 51.1384 18.6129 51.3279 18.7255 51.4991C19.1543 52.1476 19.7326 52.6466 20.3596 53.0925C20.5698 53.2435 20.7724 53.3837 20.7911 53.6859C20.7966 53.7774 20.9107 53.9215 20.9965 53.9382C21.5809 54.0621 21.9547 54.5372 22.4609 54.7924C22.6825 54.9044 22.8722 55.0929 23.0502 55.2736C23.345 55.5722 23.5831 55.9175 23.5538 56.363C23.5155 56.9285 23.6641 57.1696 24.2209 57.3066C24.9054 57.4746 25.6801 58.0938 26.3725 58.2278C27.2006 58.3879 28.0341 58.5302 28.8692 58.652C29.4815 58.7414 30.0053 58.2733 30.5444 57.9071C30.8531 57.6985 31.1647 57.688 31.4979 57.8173C31.9645 58.001 32.4284 58.194 32.9011 58.3575C33.1201 58.4332 33.3579 58.4794 33.5899 58.4901C33.9716 58.5072 34.4448 58.9596 34.8261 58.9289C35.6449 58.8642 36.268 58.6881 36.9232 59.1352C37.0712 59.2359 37.1546 59.4294 37.2742 59.5735C37.35 59.6648 37.4255 59.7885 37.5269 59.8223C37.6805 59.8716 37.8556 59.8709 38.0204 59.8634C38.3417 59.851 38.6172 59.9246 38.8426 60.1764C38.9186 60.2632 39.0565 60.3289 39.1716 60.3411C39.7949 60.4071 40.4198 60.4584 41.0461 60.5049C41.3358 60.5254 41.4667 60.3894 41.5198 60.1123C41.5479 59.964 41.6169 59.8144 41.7033 59.6904C41.9034 59.4059 42.162 59.4158 42.3783 59.6839C42.544 59.8871 42.7447 60.0634 42.8966 60.276C43.0688 60.5181 43.2265 60.7776 43.3482 61.0474C43.4558 61.2842 43.5116 61.5479 43.5746 61.8024C43.591 61.8695 43.5725 61.9691 43.5307 62.0241C43.4146 62.1784 43.2775 62.3167 43.1485 62.4624C43.04 62.5873 42.8747 62.6955 42.8355 62.8381C42.755 63.1295 42.57 63.3084 42.3406 63.4714C42.2652 63.5252 42.1857 63.6043 42.1606 63.6873C42.0687 63.9831 42.01 64.2892 41.9194 64.5858C41.8034 64.9645 41.8686 65.2073 42.1663 65.406C42.4772 65.6155 42.4827 65.6212 42.2038 65.8965C41.9771 66.1192 41.9391 66.3766 42.0479 66.6545C42.1576 66.9312 42.1891 67.2532 42.6127 67.3079C43.2047 67.3845 43.6861 67.736 44.1285 68.1108C44.6589 68.5588 45.1558 69.0468 45.6663 69.5187C45.7154 69.5649 45.781 69.6091 45.8045 69.667C45.935 69.9931 46.123 69.6864 46.4272 69.7812C46.7837 69.8925 47.1503 69.9695 47.5092 70.0703C47.9816 70.2037 48.4556 70.3335 48.9197 70.4931C49.0799 70.5478 49.379 71.1089 49.4308 71.2428C49.606 71.7009 49.7357 72.1778 49.8509 72.6543C49.9092 72.8963 49.9049 73.1549 49.9148 73.4063C49.9306 73.7738 49.9825 74.1487 49.9296 74.5072C49.8322 75.1646 49.6767 75.8099 49.8308 76.4807C49.8861 76.7244 49.902 76.9836 49.8939 77.2341C49.8768 77.7419 49.4723 78.2091 49.7401 78.7529C49.7711 78.8149 49.7102 78.9205 49.6967 79.0057C49.6377 79.3844 49.5808 79.7627 49.5228 80.1412C49.559 80.1609 49.5961 80.1794 49.6323 80.1991C49.7368 80.0939 49.8413 79.9887 49.956 79.8726C50.0529 80.2555 49.5686 80.2327 49.5208 80.5143C49.5899 80.5254 49.6577 80.5357 49.7378 80.5457C49.6428 80.6937 49.5633 80.8186 49.4472 81.0019L49.9537 80.9032C49.3814 81.4031 49.6913 81.9052 49.7778 82.3951C50.5815 82.4472 50.5788 82.5135 51.3973 82.1375C51.2797 82.1181 51.1781 82.101 51.0627 82.0811C51.1416 81.7242 51.1609 81.3711 51.514 81.1438C51.7222 81.0095 51.8837 80.8017 52.0563 80.6163C52.107 80.5618 52.124 80.477 52.1583 80.4011C51.969 80.3632 51.823 80.3358 51.6537 80.303C51.8181 79.9495 52.2562 79.9925 52.3822 79.6086C52.4714 79.3446 52.7871 79.1547 53.0013 78.931C52.9789 78.9075 52.9565 78.884 52.934 78.8604C52.8322 78.8647 52.7307 78.871 52.6181 78.8774C52.6012 78.653 52.6884 78.5623 52.8926 78.5906C53.1781 78.6298 53.4085 78.4946 53.4806 78.2517C53.6042 77.8381 53.837 77.6008 54.2608 77.5417C54.3085 77.5346 54.3567 77.5185 54.4015 77.4964C55.1693 77.118 55.6794 76.8378 55.4984 75.9032C56.3967 75.9882 56.9229 75.4125 57.4333 74.813C57.5226 74.7097 57.5889 74.5863 57.6782 74.4829C58.1948 73.8811 58.7233 73.2882 59.2282 72.6776C59.3607 72.5156 59.482 72.3078 59.5142 72.1062C59.5732 71.7387 59.746 71.4517 60.021 71.2363C60.5533 70.8178 61.1027 70.4239 61.6516 70.0279C61.7523 69.9547 61.8855 69.9277 61.9998 69.873C62.2022 69.7778 62.4211 69.7039 62.5992 69.5754C63.1708 69.1582 63.5028 68.5422 63.8209 67.9412C64.2263 67.1803 64.5253 66.3664 64.7162 65.519C64.7524 65.3612 64.8305 65.2009 64.9309 65.0742C65.4489 64.422 65.9814 63.7814 66.5058 63.1334C66.5986 63.0194 66.6845 62.8988 66.7667 62.7768C67.0983 62.2847 67.236 61.7601 66.989 61.1911C66.9505 61.1026 66.8203 60.9784 66.7556 60.9899L66.7556 60.9843ZM34.9423 19.5212C35.0829 19.4525 35.1975 19.3821 35.1799 19.1713C35.1618 18.9583 35.3245 18.854 35.5838 18.8326C35.5257 18.9756 35.4794 19.0873 35.4239 19.2208C35.4797 19.2725 35.5396 19.3278 35.5995 19.3831C35.3414 19.8284 34.9628 19.8498 34.4988 19.6969C34.6719 19.6285 34.8126 19.5833 34.9421 19.5201L34.9423 19.5212ZM15.1028 38.417C15.0697 38.1611 15.0418 37.9434 15.0031 37.6417C15.3564 37.9658 15.3816 38.1751 15.1028 38.417ZM60.1428 18.0529C60.116 18.3795 60.0733 18.687 59.676 18.7733C59.5517 18.7998 59.4329 18.8486 59.3092 18.8839C58.9738 18.9782 58.8735 19.1339 58.935 19.4668C59.0263 19.9524 58.7933 20.3147 58.3208 20.4213C57.8956 20.5187 57.8591 20.5838 58.0316 20.9933C58.0759 21.1007 58.161 21.1935 58.197 21.3037C58.2376 21.4319 58.2556 21.5702 58.2607 21.7053C58.2832 22.2902 58.2946 22.8762 58.3149 23.4615C58.3185 23.5769 58.3679 23.6934 58.3575 23.8059C58.3333 24.0539 58.1585 24.1192 57.9157 24.0817C57.5671 24.028 57.2992 23.8849 57.0497 23.6355C56.9623 23.5476 56.7174 23.5853 56.5518 23.612C56.3702 23.6418 56.2668 23.5581 56.115 23.4895C55.5234 23.2197 55.3217 22.557 54.8126 22.2466C53.9847 21.7438 53.4412 20.9647 52.7799 20.3034C52.3904 19.9139 52.1357 19.42 52.1116 18.832C52.0936 18.3846 52.0712 18.3845 52.5031 18.3729C52.602 18.0155 52.4717 17.782 52.0384 17.5918C52.1369 17.7077 52.2125 17.7979 52.2877 17.8859C51.8302 18.3043 51.0967 17.9193 50.7835 17.0908C50.9831 17.0787 51.1703 17.0657 51.4295 17.0498C51.0767 16.9578 50.7803 16.914 50.5138 16.8007C50.3277 16.722 50.1251 16.5818 50.0319 16.4125C49.6639 15.7554 49.1303 15.2678 48.551 14.8093C48.3027 14.6121 48.0958 14.3634 47.8687 14.1375C47.8412 14.1105 47.816 14.0674 47.7832 14.0593C47.2753 13.9328 46.7773 13.7486 46.2373 13.8237C45.7189 13.8957 45.1936 14.0349 44.6775 13.8319C44.3522 13.7033 44.043 13.5314 43.6872 13.3608C43.8094 13.2945 43.8891 13.2511 44.0214 13.1796C43.7857 13.0983 43.5875 13.032 43.3899 12.9633C43.2606 12.9182 43.1272 12.8806 43.0074 12.8158C42.9487 12.7837 42.8797 12.6933 42.8871 12.6394C42.8962 12.583 42.9829 12.5125 43.0485 12.4941C43.4883 12.3739 43.9327 12.2661 44.4093 12.1464C44.4198 11.9825 44.3198 11.8703 44.1121 11.8126C43.8961 11.752 43.6886 11.6663 43.4773 11.5903C43.4814 11.5538 43.4843 11.5175 43.4884 11.481C43.645 11.4315 43.7997 11.3835 43.9796 11.3272C43.8514 11.2819 43.7231 11.2366 43.5938 11.1915C43.9472 11.1494 44.3 11.1041 44.6521 11.0667C44.8217 11.0493 44.9931 11.0472 45.1688 10.9862C45.0978 10.9598 45.0268 10.9335 44.9547 10.9073C44.9546 10.8895 44.9545 10.8717 44.9533 10.854C45.1134 10.8507 45.2759 10.8258 45.432 10.8478C47.6381 11.1668 49.8113 11.6318 51.9072 12.3986C52.7931 12.7238 53.6383 13.1551 54.5128 13.5137C54.9978 13.7116 55.5501 13.8027 55.8961 14.2263C56.0588 14.4257 56.2318 14.5806 56.4453 14.6907C56.666 14.804 56.9089 14.8761 57.1417 14.9658C57.1352 14.9894 57.1284 15.0119 57.1229 15.0353C57.057 15.0292 56.9908 15.0219 56.9249 15.0158C56.921 15.03 56.9162 15.0454 56.9112 15.0598C56.9948 15.0993 57.0885 15.1279 57.1604 15.182C57.4485 15.4004 57.7416 15.6156 57.8672 15.9796C57.8803 16.0183 57.9328 16.0471 57.9724 16.0729C58.4818 16.4134 58.9945 16.7476 59.4996 17.0945C59.6786 17.217 59.839 17.3699 60.0067 17.5091C59.9954 17.5314 59.9844 17.5547 59.9729 17.576C59.8916 17.5829 59.8104 17.5898 59.6479 17.6036C59.9277 17.7053 60.169 17.7464 60.1437 18.0516L60.1428 18.0529ZM43.5691 11.1851C43.5762 11.1871 43.5846 11.1899 43.5908 11.1932C43.5809 11.194 43.571 11.1948 43.5624 11.1965L43.5693 11.1862L43.5691 11.1851ZM76.7598 52.6143C76.7033 53.0003 76.5124 53.3667 76.3749 53.7663C76.0158 53.6019 75.8567 53.8047 75.6913 54.01C75.6284 54.0881 75.5294 54.1353 75.4461 54.195C75.3971 54.1153 75.3391 54.0406 75.3023 53.9552C75.1706 53.6516 75.0409 53.3465 74.9218 53.0393C74.8837 52.9408 74.8505 52.8278 74.8583 52.7247C74.911 51.9868 74.4343 51.4591 74.1043 50.8828C73.9806 50.6658 73.8913 50.4712 73.911 50.2285C73.9167 50.1604 73.9497 50.0837 73.9292 50.024C73.6685 49.259 74.1379 48.5749 74.1662 47.8439C74.1874 47.294 74.1856 46.752 73.9351 46.2394C73.8751 46.1149 73.3839 46.0399 73.4056 45.9051C73.55 45.0421 73.6907 44.1777 73.8842 43.3263C73.9835 42.8851 74.2255 42.4775 74.3362 42.0374C74.4298 41.6642 74.9289 41.1786 74.9113 40.7959C74.8854 40.1993 74.8479 39.6118 74.9777 39.0173C75.1054 38.4355 74.9598 37.8891 74.6157 37.4003C74.594 37.3688 74.5611 37.3206 74.5334 37.3215C74.1645 37.3298 74.1649 37.0283 74.0524 36.7947C73.8183 36.309 73.7201 35.7936 73.6057 35.2757C73.5072 34.8272 73.3287 34.3977 73.197 33.9569C73.1592 33.8314 73.138 33.6883 73.159 33.5614C73.1854 33.3933 73.2839 33.3205 73.481 33.3926C73.6805 33.4654 73.8984 33.4843 74.1562 33.5356C74.1294 33.398 74.1325 33.2992 74.0918 33.2223C73.8181 32.6997 73.5466 32.1767 73.2518 31.6661C73.1672 31.5185 73.0107 31.4139 72.8891 31.2881C72.7815 31.1773 72.671 31.0683 72.5734 30.9512C72.4248 30.7725 72.4547 30.6339 72.692 30.5631C72.6146 30.2746 72.5412 30.001 72.4475 29.652C72.269 29.8129 72.1372 29.9324 71.938 30.1129C71.886 29.8463 71.8496 29.6592 71.8131 29.4721C71.798 29.3946 71.8092 29.2686 71.7674 29.2488C71.34 29.043 71.4544 28.5364 71.199 28.2335C71.1294 28.151 71.2258 27.9414 71.1666 27.8324C71.0519 27.6215 70.8856 27.4385 70.7308 27.251C70.69 27.2021 70.6145 27.1811 70.514 27.1236C70.6933 27.5284 70.8567 27.8973 71.0205 28.2627C71.1446 28.5387 71.1691 28.8074 70.9439 29.0722C70.6753 28.994 70.5849 28.7594 70.4892 28.5258C70.3869 28.2756 70.2607 28.0346 70.1754 27.78C70.0774 27.4888 70.0041 27.1873 69.9368 26.8879C69.9282 26.8494 70.0204 26.7901 70.096 26.7084C69.6816 26.2311 69.2586 25.7443 68.8359 25.2586C68.8581 25.2353 68.8793 25.2122 68.9005 25.1891C68.9465 25.2136 68.9937 25.2379 69.0535 25.2698C69.0629 25.1463 69.073 25.0205 69.0833 24.8789C70.283 26.259 71.4764 27.6292 72.2681 29.2986C72.2268 29.1783 72.1853 29.0569 72.1222 28.8705C73.7794 31.5387 74.9027 34.331 75.3061 37.4153C75.0753 37.4335 74.983 37.5843 75.0261 37.8226C75.0862 38.1479 75.3435 38.1056 75.5854 38.1154C75.5675 37.9548 75.5341 37.8006 75.5387 37.6468C75.5406 37.565 75.6098 37.4845 75.6487 37.4033C75.7042 37.4706 75.7905 37.5297 75.8109 37.6061C75.9548 38.1383 76.0976 38.6707 76.2189 39.2074C77.2228 43.6435 77.412 48.1144 76.7602 52.6164L76.7598 52.6143ZM43.5616 11.1866L43.2831 11.2408C43.3431 11.2738 43.3845 11.297 43.3997 11.3063C43.2657 11.4953 43.1677 11.7254 42.9935 11.8508C42.8165 11.9791 42.566 12.0056 42.3362 12.0805C42.6653 12.3891 42.5736 12.7775 42.1888 12.9507C42.0545 13.0115 41.9766 13.2019 41.8737 13.3324C41.9892 13.4271 42.1022 13.52 42.2163 13.6128C42.1086 13.6962 42.0008 13.7786 41.8787 13.8739C41.8999 13.8965 41.9394 13.939 42.0104 14.0167C41.9136 14.0356 41.8391 14.0769 41.7936 14.0556C41.3671 13.8541 40.9066 13.7764 40.4614 13.8688C39.9619 13.9739 39.4809 13.9571 38.987 13.9027C38.8992 13.893 38.7988 14.0019 38.6378 14.0924C39.0973 14.3198 39.4956 14.3304 39.8979 14.2241C40.4084 14.0889 40.9172 14.0311 41.4355 14.1711C41.6087 14.2178 41.831 14.2648 41.7904 14.4803C41.7688 14.5984 41.5788 14.7515 41.4457 14.773C40.9832 14.8452 40.5129 14.8889 40.0447 14.9031C39.4677 14.9206 38.8905 14.9081 38.3142 14.8887C37.83 14.8726 37.755 14.7164 37.9523 14.2684C37.9809 14.2036 37.9102 14.0411 37.8421 14.0008C37.7401 13.9414 37.5981 13.9401 37.4729 13.9332C37.1533 13.914 37.0702 13.8711 36.8486 13.5816C37.0825 13.3787 37.506 13.3185 37.7969 13.4995C38.174 13.7341 38.5341 13.6115 38.8998 13.5067C39.0468 13.4647 39.1806 13.3784 39.337 13.3044C39.306 13.22 39.2719 13.1251 39.2043 12.9441C39.4375 12.9611 39.6231 12.9741 39.8086 12.987C39.813 12.9694 39.8185 12.9516 39.8228 12.934C39.6044 12.8896 39.3883 12.829 39.1667 12.8029C38.9737 12.7803 38.7729 12.815 38.5805 12.7899C38.3456 12.7587 38.1448 12.6505 38.0909 12.3909C38.0783 12.3264 38.1129 12.2516 38.1268 12.1797C37.7977 12.2438 37.5962 12.0744 37.5258 11.7187C37.5646 11.6888 37.6275 11.6509 37.6753 11.598C37.7541 11.5101 37.8255 11.3321 37.894 11.3344C38.1088 11.3428 38.32 11.4188 38.534 11.4686C38.8846 11.5499 39.2342 11.6313 39.5872 11.6674C39.1993 11.5265 38.8105 11.3869 38.4214 11.2462C38.4184 11.2133 38.4153 11.1804 38.4112 11.1477C38.7444 11.0593 39.0789 10.9718 39.4429 10.8753C39.4508 10.6639 39.6952 10.7212 39.8565 10.7065C41.0047 10.6022 42.1334 10.7874 43.2613 10.9627C43.3856 10.982 43.5762 10.9639 43.5592 11.1859L43.5616 11.1866ZM43.5616 11.1866L43.5691 11.1851L43.5622 11.1954C43.5622 11.1954 43.5612 11.19 43.5627 11.1864L43.5616 11.1866ZM43.5574 52.962C43.1805 53.0667 42.7919 53.1346 42.4072 53.2106C42.233 53.2446 42.1026 53.2053 42.0667 52.9924C42.054 52.9156 41.9773 52.8201 41.9061 52.7871C41.1282 52.4375 40.3064 52.3611 39.4631 52.4037C39.2023 52.4166 38.9368 52.3545 38.6738 52.3566C38.5301 52.3578 38.3873 52.4214 38.2163 52.4658C38.3688 52.6181 38.4573 52.7057 38.5471 52.7943C38.4932 52.8327 38.4216 52.9124 38.3901 52.8996C38.2786 52.8544 38.1806 52.7752 38.0147 52.6681C37.74 52.7707 37.3881 52.9006 37.0175 53.0376C36.9382 52.7283 37.1032 52.5667 37.2587 52.437C37.7667 52.0144 38.3438 51.768 39.0126 51.6779C40.1004 51.5329 41.1386 51.8205 42.1952 51.945C42.7412 52.0094 43.2859 52.0841 43.8304 52.1633C43.9555 52.1813 44.0812 52.2193 44.197 52.2693C44.4105 52.3627 44.4313 52.5495 44.2301 52.6624C44.017 52.7831 43.7919 52.894 43.5579 52.9585L43.5574 52.962ZM30.8861 14.2211C30.6185 14.2453 30.3501 14.2708 30.0356 14.3009C30.2556 13.8149 32.0454 13.0912 32.6206 13.2191C32.3192 13.4765 32.0445 13.7108 31.7785 13.9378C31.8129 13.9311 31.8726 13.9284 31.9269 13.9089C32.1473 13.8258 32.4372 13.939 32.496 14.1552C32.5412 14.3182 32.5528 14.5437 32.7733 14.4728C32.913 14.4277 33.0437 14.2449 33.1056 14.0933C33.1842 13.9006 33.4891 13.5867 33.681 13.6207C33.7329 13.6296 33.7993 13.7528 33.7994 13.822C33.7966 14.0368 33.8355 14.1676 34.0973 14.1133C34.1691 14.0982 34.2868 14.1355 34.3265 14.1902C34.3568 14.2312 34.3131 14.3502 34.2709 14.4143C34.0383 14.7732 33.67 14.8874 33.2732 14.9647C32.8915 15.0391 32.5146 15.1437 32.1362 15.2353C31.889 15.2958 31.6444 15.3691 31.395 15.4121C31.3139 15.4257 31.2208 15.3601 31.1324 15.3305C31.1659 15.2503 31.1983 15.1703 31.2338 15.083C31.2427 15.0891 31.2286 15.074 31.2106 15.0675C31.0586 15.0145 30.9056 14.9628 30.7538 14.9109C30.8504 14.7995 30.944 14.6841 31.0457 14.5762C31.1299 14.4872 31.2225 14.4067 31.2905 14.2918C31.076 14.4051 30.8612 14.5172 30.6467 14.6305C30.6294 14.6048 30.6123 14.5802 30.5951 14.5546C30.6917 14.4431 30.7882 14.3317 30.8861 14.2211C30.8883 14.2207 30.8904 14.2202 30.8936 14.2196C30.8956 14.2181 30.8967 14.2179 30.8984 14.2153C31.1075 14.1947 31.3143 14.1734 31.5101 14.1531C31.4475 14.0436 31.4045 13.9661 31.3689 13.9038C31.2286 13.997 31.0635 14.1062 30.8984 14.2153C30.8952 14.216 30.8919 14.2166 30.8887 14.2172C30.8876 14.2174 30.887 14.2198 30.8861 14.2211ZM44.4204 53.4903C44.4114 53.444 44.4838 53.3574 44.5415 53.3271C44.696 53.2435 44.8679 53.1921 45.0217 53.1052C45.1437 53.0379 45.2466 52.9532 45.1202 52.7802C44.9529 52.5517 45.0025 52.4282 45.2673 52.3208C45.2766 52.3167 45.2856 52.3116 45.2944 52.311C45.9893 52.2459 46.684 52.1452 47.3799 52.1312C47.6992 52.1259 48.0259 52.2788 48.3407 52.3882C48.4379 52.4229 48.5047 52.5482 48.5849 52.6331C48.4927 52.7102 48.4102 52.8021 48.3083 52.8577C48.2265 52.9016 48.118 52.9004 48.0223 52.919C47.5137 53.0929 46.9394 53.1066 46.5252 53.5299C46.4546 53.6028 46.2918 53.6033 46.1708 53.6068C45.8439 53.6191 45.5155 53.6117 45.1883 53.6163C44.9848 53.6202 44.7799 53.6457 44.5761 53.6363C44.5198 53.6338 44.4332 53.5503 44.4217 53.4911L44.4204 53.4903ZM64.68 21.0048C64.9496 21.2714 64.9469 21.3892 64.7496 21.6999C64.5846 21.9586 64.3737 21.7698 64.1912 21.7496C63.9915 21.7271 63.7944 21.655 63.6066 21.5789C63.4842 21.5291 63.3783 21.4381 63.2693 21.36C63.1109 21.2458 62.967 21.1086 62.7988 21.0131C62.642 20.9242 62.4611 20.878 62.6166 20.6278C62.0137 20.512 61.9615 20.4619 61.9272 19.9307C62.2152 20.0799 62.4674 20.2116 62.7205 20.3419C62.725 20.3076 62.7209 20.218 62.7388 20.2123C62.9373 20.1602 63.1427 20.08 63.3405 20.0928C63.5198 20.1025 63.7164 20.1836 63.8626 20.2924C64.1523 20.5072 64.4241 20.7511 64.6811 21.0046L64.68 21.0048ZM34.7156 14.1937C34.6979 14.0398 34.7853 13.8754 34.8254 13.7147C34.9422 13.7756 35.059 13.8366 35.1768 13.8973C35.169 13.9145 35.1614 13.9327 35.1549 13.9507L35.5011 13.8833C35.4292 13.6573 35.5768 13.6018 35.7291 13.6156C36.0074 13.6406 36.2819 13.7032 36.5955 13.7548C36.5094 13.9658 36.4483 14.1161 36.3706 14.3076C36.6348 14.3287 36.8939 14.536 37.0689 14.1626C37.0785 14.1429 37.1763 14.164 37.2335 14.1651C37.1209 14.3779 37.3542 14.395 37.4256 14.5038C37.5382 14.675 37.4433 14.9211 37.2355 14.9259C37.0045 14.9318 36.7706 14.877 36.5396 14.8372C36.5014 14.8301 36.4695 14.7638 36.4431 14.7198C36.4099 14.6638 36.3917 14.5591 36.3563 14.5548C36.2829 14.5446 36.1687 14.5601 36.1306 14.611C35.9096 14.8974 35.5968 14.8155 35.3134 14.816C35.2666 14.8162 35.2211 14.6342 35.1479 14.4822C35.021 14.4723 34.7504 14.4927 34.7158 14.1947L34.7156 14.1937ZM35.9223 12.6885C35.7564 12.6616 35.5858 12.6681 35.4171 12.6619C35.4177 12.6361 35.4183 12.6103 35.4177 12.5848C35.4759 12.5511 35.5332 12.5187 35.5953 12.4821C35.4441 12.3363 35.4082 12.2038 35.6752 12.1763C36.0757 12.1351 36.4639 12.18 36.8328 12.3894C36.7798 12.5415 36.7565 12.6911 36.6784 12.8056C36.6159 12.8971 36.4945 12.9732 36.3846 12.9991C36.3367 13.0106 36.2619 12.8734 36.1868 12.82C36.1065 12.7631 36.0157 12.7037 35.9223 12.6885ZM12.6646 35.3262C12.6475 35.3239 12.6303 35.3217 12.6131 35.3195C12.6629 34.9448 12.688 34.5638 12.7764 34.1984C12.8069 34.0741 12.9818 33.9407 13.1184 33.8974C13.2783 33.8472 13.3939 33.9307 13.327 34.1491C13.1914 34.593 13.076 35.0429 12.9462 35.4878C12.932 35.5353 12.8669 35.6138 12.8457 35.6079C12.7901 35.5919 12.7332 35.5461 12.7012 35.4965C12.672 35.4497 12.6747 35.3834 12.6636 35.3264L12.6646 35.3262ZM49.6558 31.8552C50.1145 31.8149 50.5584 31.8769 50.9679 32.0939C51.0264 32.125 51.1051 32.2424 51.0913 32.263C51.0374 32.3416 50.9501 32.3976 50.9233 32.4207C50.4034 32.4729 49.9888 32.3785 49.6134 32.1358C49.5585 32.1007 49.5099 32.0231 49.5017 31.9578C49.4984 31.9294 49.5986 31.8596 49.6558 31.8552ZM43.1819 53.9961C42.8375 54.3936 42.3305 54.5124 41.9416 54.3036C41.8754 54.2674 41.8077 54.1891 41.7928 54.1183C41.7854 54.0807 41.8797 53.9976 41.9443 53.9738C42.3473 53.8194 42.7553 53.6852 43.1819 53.9961ZM50.3606 52.3127C50.4188 52.3248 50.4837 52.4115 50.4984 52.4756C50.5061 52.5154 50.4378 52.6001 50.3864 52.6224C50.2242 52.6898 50.0526 52.7366 49.8755 52.7957C49.7366 52.8049 49.5894 52.828 49.4455 52.8169C49.3808 52.8117 49.2874 52.7506 49.2701 52.696C49.253 52.6424 49.2995 52.5374 49.3504 52.5007C49.6554 52.285 50.0001 52.2323 50.3595 52.3129L50.3606 52.3127ZM39.1443 24.0808C38.9446 24.0583 38.8671 23.9127 38.9687 23.7523C39.1528 23.4597 39.7068 23.3305 40.017 23.5078C39.9014 23.8306 39.466 24.1163 39.1445 24.0818L39.1443 24.0808ZM53.5693 53.6875C53.5861 53.739 53.5573 53.8606 53.544 53.861C53.4548 53.8672 53.3089 53.88 53.2818 53.8328C53.1333 53.5805 52.9971 53.3169 52.9014 53.0431C52.8815 52.9867 53.0388 52.8322 53.1413 52.7854C53.1997 52.7584 53.315 52.8576 53.4046 52.8993C53.3746 52.9286 53.3444 52.9568 53.3154 52.9859C53.4011 53.2192 53.4919 53.4504 53.5693 53.6875ZM40.5684 28.858C40.4549 28.7796 40.3376 28.6987 40.2194 28.6191C40.2955 28.5228 40.3512 28.3791 40.4509 28.3407C40.6044 28.2807 40.7927 28.2506 40.9544 28.2783C41.1345 28.3091 41.2053 28.4493 41.0257 28.587C40.9036 28.6822 40.76 28.747 40.5686 28.859L40.5684 28.858ZM32.9307 12.9432C33.3534 12.9077 33.7137 12.8777 34.0915 12.8465C33.8004 13.3742 33.4508 13.4133 32.9307 12.9432ZM42.582 22.5984C42.6425 22.6224 42.6821 22.6939 42.7311 22.7446C42.6682 22.7714 42.6068 22.8112 42.5425 22.8193C42.4892 22.8263 42.4311 22.7975 42.3538 22.7791C42.2721 23.1443 42.042 23.1891 41.7075 22.8927C41.796 22.8431 41.8682 22.79 41.949 22.7575C42.091 22.7019 42.2371 22.6556 42.3841 22.6136C42.4476 22.5956 42.5263 22.5758 42.582 22.5984ZM41.5199 50.1346C41.679 50.2521 41.8378 50.3685 42.0463 50.522C41.9343 50.6633 41.8764 50.7382 41.8182 50.812C41.6756 50.6646 41.5234 50.5246 41.4013 50.362C41.3789 50.3329 41.477 50.2122 41.5186 50.1338L41.5199 50.1346ZM48.4177 23.3531C48.5126 23.3648 48.5979 23.4475 48.7496 23.5384C48.6297 23.6277 48.559 23.7173 48.5154 23.7057C48.4208 23.6784 48.3419 23.6 48.2563 23.5442C48.311 23.4755 48.373 23.3473 48.419 23.354L48.4177 23.3531ZM44.259 50.8688C44.3625 50.862 44.4691 50.9105 44.6639 50.9595C44.5185 51.0727 44.4524 51.1626 44.3791 51.1702C44.3034 51.1771 44.2202 51.0996 44.1413 51.0614C44.1804 50.9924 44.2158 50.8705 44.26 50.8686L44.259 50.8688ZM35.1086 13.4095C35.0397 13.3939 34.9109 13.3744 34.9103 13.3656C34.9217 13.2294 34.9503 13.0955 34.9742 12.9603C35.0368 12.9726 35.0986 12.9862 35.1613 12.9986C35.1432 13.1349 35.1254 13.2723 35.1073 13.4086L35.1086 13.4095ZM10.7488 25.7798C10.7162 25.7616 10.6836 25.7434 10.6519 25.7239C10.7811 25.4934 10.9114 25.2627 11.0406 25.0321C11.0744 25.0512 11.1083 25.0703 11.1411 25.0896C11.0106 25.3192 10.8792 25.5502 10.7488 25.7798ZM53.6722 54.2612C53.6487 54.364 53.5973 54.4611 53.5338 54.6163C53.4561 54.521 53.3799 54.4622 53.3903 54.4356C53.4267 54.3359 53.4911 54.2485 53.5445 54.1555C53.5892 54.1904 53.6775 54.2368 53.6722 54.2612ZM43.4186 50.3361C43.3051 50.2578 43.1905 50.1797 43.077 50.1013C43.1114 50.0545 43.1443 50.0056 43.1785 49.9577C43.2872 50.0403 43.3979 50.1214 43.501 50.2096C43.5066 50.2152 43.448 50.2924 43.4186 50.3361ZM46.7887 24.6158C46.8293 24.5488 46.8695 24.4807 46.933 24.3768C47.0173 24.4429 47.1178 24.4948 47.1112 24.524C47.0969 24.5937 47.0438 24.6878 46.9842 24.7083C46.9349 24.7246 46.8556 24.6497 46.7887 24.6158ZM44.8023 51.985C44.7964 51.9259 44.7733 51.8188 44.7849 51.8154C44.8889 51.7818 44.9985 51.766 45.106 51.7451C45.1132 51.805 45.1192 51.8641 45.1262 51.923L44.8015 51.9863L44.8023 51.985ZM32.838 19.4156C32.9668 19.3492 33.0956 19.2828 33.2255 19.2162C33.2487 19.2608 33.2721 19.3064 33.2953 19.351C33.1669 19.4195 33.0396 19.4879 32.911 19.5553C32.8863 19.5088 32.8616 19.4623 32.838 19.4156Z" fill="url(#paint1_radial_14489_5651)"/>
        <path d="M60.9999 0.000976562C54.3725 0.000976562 49 5.37349 49 12.0009C49 13.7049 49.3218 15.3939 49.9717 16.7743C52.6819 22.5308 58.1268 28.9609 60.186 31.2915C60.6184 31.7808 61.3816 31.7808 61.814 31.2915C63.873 28.9609 69.3181 22.531 72.0283 16.7743C72.6782 15.3937 73 13.7047 73 12.0009C73 5.37349 67.6275 0.000976562 61.0001 0.000976562H60.9999ZM60.9999 18.2797C57.027 18.2797 53.8064 15.0591 53.8064 11.0862C53.8064 7.11329 57.027 3.89263 60.9999 3.89263C64.9728 3.89263 68.1935 7.11329 68.1935 11.0862C68.1935 15.0591 64.9728 18.2797 60.9999 18.2797Z" fill="url(#paint2_linear_14489_5651)"/>
        <path d="M60.9982 3.88965C57.0253 3.88965 53.8047 7.11031 53.8047 11.0832C53.8047 15.0561 57.0253 18.2767 60.9982 18.2767C64.9711 18.2767 68.1918 15.0561 68.1918 11.0832C68.1918 7.11031 64.9711 3.88965 60.9982 3.88965ZM60.9982 17.5902C57.4046 17.5902 54.4913 14.6769 54.4913 11.0832C54.4913 7.48952 57.4046 4.57622 60.9982 4.57622C64.5919 4.57622 67.5052 7.48952 67.5052 11.0832C67.5052 14.6769 64.5919 17.5902 60.9982 17.5902Z" fill="url(#paint3_linear_14489_5651)"/>
        <path opacity="0.1" d="M60.9999 0C54.3725 0 49 5.37251 49 11.9999C49 12.0096 49 12.0195 49.0002 12.0292C50.5674 12.5535 52.2975 12.9779 54.1482 13.2824C53.9263 12.5898 53.8064 11.8515 53.8064 11.0852C53.8064 7.11231 57.027 3.89166 60.9999 3.89166C64.9728 3.89166 68.1935 7.11231 68.1935 11.0852C68.1935 11.8515 68.0735 12.5898 67.8516 13.2824C69.7023 12.9779 71.4324 12.5537 72.9997 12.0292C72.9997 12.0195 72.9997 12.0096 72.9997 11.9999C72.9997 5.37251 67.6272 0 60.9997 0H60.9999Z" fill="white"/>
    </g>
    <defs>
        <radialGradient id="paint0_radial_14489_5651" cx="0" cy="0" r="1" gradientUnits="userSpaceOnUse" gradientTransform="translate(32.3486 39.7001) rotate(-11.0257) scale(42.8647)">
            <stop stop-color="white"/>
            <stop offset="0.34" stop-color="#E6E6E6"/>
            <stop offset="0.52" stop-color="#E6E6E6"/>
            <stop offset="0.65" stop-color="#E6E6E6"/>
            <stop offset="0.77" stop-color="#D4D4D4"/>
            <stop offset="0.87" stop-color="#BCBCBC"/>
            <stop offset="0.96" stop-color="#9E9E9E"/>
            <stop offset="1" stop-color="#919191"/>
        </radialGradient>
        <radialGradient id="paint1_radial_14489_5651" cx="0" cy="0" r="1" gradientUnits="userSpaceOnUse" gradientTransform="translate(36.5 49.499) rotate(-50.0636) scale(28.0402 28.0401)">
            <stop stop-color="#55538A"/>
            <stop offset="1" stop-color="#09082C"/>
        </radialGradient>
        <linearGradient id="paint2_linear_14489_5651" x1="52.5" y1="5.50098" x2="66.5" y2="23.501" gradientUnits="userSpaceOnUse">
            <stop stop-color="#97e194"/>
            <stop offset="1" stop-color="#257223"/>
        </linearGradient>
        <linearGradient id="paint3_linear_14489_5651" x1="65.7892" y1="-6.10802" x2="60.9046" y2="20.4523" gradientUnits="userSpaceOnUse">
            <stop stop-color="#3caf38"/>
            <stop offset="1" stop-color="#5ac856"/>
        </linearGradient>
        <clipPath id="clip0_14489_5651">
            <rect width="78" height="94" fill="white"/>
        </clipPath>
    </defs>
</svg>
